<?xml version="1.0" standalone="no"?>
<!DOCTYPE svg PUBLIC "-//W3C//DTD SVG 20010904//EN"
 "http://www.w3.org/TR/2001/REC-SVG-20010904/DTD/svg10.dtd">
<svg version="1.0" xmlns="http://www.w3.org/2000/svg"
 width="500.000000pt" height="500.000000pt" viewBox="0 0 500.000000 500.000000"
 preserveAspectRatio="xMidYMid meet">

<g transform="translate(0.000000,500.000000) scale(0.100000,-0.100000)"
fill="#000000" stroke="none">
<path d="M3237 3249 c-46 -27 -47 -41 -47 -521 0 -260 4 -467 10 -487 12 -42
36 -60 78 -61 46 0 69 14 81 53 18 53 13 944 -5 979 -23 45 -75 61 -117 37z
m75 -36 c16 -14 18 -33 18 -140 l0 -123 -50 0 -50 0 0 130 c0 112 2 130 18
139 25 15 43 13 64 -6z"/>
<path d="M4010 3223 c-37 -25 -49 -45 -50 -78 -1 -109 151 -133 190 -30 16 41
12 53 -25 90 -39 40 -76 45 -115 18z"/>
<path d="M2445 3180 c-3 -6 1 -7 9 -4 18 7 21 14 7 14 -6 0 -13 -4 -16 -10z"/>
<path d="M2491 3166 c9 -10 59 -14 54 -5 -4 5 -18 9 -32 9 -15 0 -24 -2 -22
-4z"/>
<path d="M2571 3158 c0 -9 -4 -25 -7 -35 -5 -17 -5 -17 6 0 6 10 9 25 7 35 -4
15 -5 15 -6 0z"/>
<path d="M2443 3132 c-1 -16 2 -20 7 -12 4 7 13 16 20 20 8 5 6 9 -7 12 -14 4
-18 -1 -20 -20z"/>
<path d="M2596 3143 c-6 -14 -5 -15 5 -6 7 7 10 15 7 18 -3 3 -9 -2 -12 -12z"/>
<path d="M964 3104 c-18 -14 -18 -14 6 -3 18 9 25 9 28 0 2 -6 8 -11 14 -11 6
0 6 6 -2 15 -16 19 -21 19 -46 -1z"/>
<path d="M300 3099 c-12 -8 -10 -9 9 -4 17 5 22 4 16 -5 -5 -9 -4 -11 4 -6 6
4 9 12 6 17 -8 12 -16 11 -35 -2z"/>
<path d="M2570 3095 c-7 -9 -10 -18 -7 -22 4 -3 9 2 13 11 3 9 11 13 17 9 6
-3 7 -1 3 5 -9 15 -11 15 -26 -3z"/>
<path d="M2448 3093 c7 -3 16 -2 19 1 4 3 -2 6 -13 5 -11 0 -14 -3 -6 -6z"/>
<path d="M2541 3064 c0 -11 3 -14 6 -6 3 7 2 16 -1 19 -3 4 -6 -2 -5 -13z"/>
<path d="M415 2971 c-3 -5 -2 -12 3 -15 5 -3 9 1 9 9 0 17 -3 19 -12 6z"/>
<path d="M3524 2961 c-53 -23 -54 -30 -54 -389 0 -322 1 -335 21 -363 17 -24
27 -29 64 -29 75 0 79 14 85 277 l5 224 105 -147 c58 -80 139 -192 180 -248
75 -101 75 -101 121 -104 41 -3 50 1 68 24 20 26 21 36 21 364 0 326 -1 338
-21 364 -27 35 -86 36 -117 3 -21 -22 -22 -33 -24 -237 l-3 -215 -158 216
c-87 119 -168 226 -181 238 -26 25 -81 35 -112 22z"/>
<path d="M4301 2958 c-50 -18 -50 -19 -51 -389 l0 -346 23 -21 c32 -30 87 -29
115 1 19 20 22 35 22 99 0 71 2 78 38 127 20 28 40 51 43 51 3 0 47 -60 97
-134 51 -73 101 -141 111 -150 13 -12 32 -16 62 -14 35 2 46 8 59 30 21 38 12
56 -118 242 -67 95 -108 164 -104 170 5 6 36 45 69 86 134 168 147 200 97 239
-34 27 -64 27 -98 0 -14 -11 -77 -86 -139 -167 l-112 -145 -5 140 c-3 94 -9
145 -18 156 -20 23 -63 36 -91 25z"/>
<path d="M1233 2953 c-51 -10 -53 -22 -53 -383 0 -365 0 -363 56 -379 42 -12
306 -13 363 -2 72 14 94 69 46 116 -23 24 -28 25 -170 25 l-145 0 0 89 0 89
134 4 c115 3 137 6 155 22 24 22 27 63 7 92 -13 17 -31 20 -153 24 l-138 5 0
80 0 80 147 5 c164 6 182 12 180 71 -2 61 -12 64 -220 66 -103 0 -197 -1 -209
-4z"/>
<path d="M1776 2937 l-26 -26 0 -339 c0 -427 -16 -392 180 -392 116 0 148 3
195 21 109 41 197 136 231 249 25 86 16 210 -20 285 -39 78 -120 159 -193 192
-52 24 -73 27 -200 31 -141 4 -142 4 -167 -21z m320 -155 c79 -40 118 -113
118 -218 0 -69 -28 -136 -74 -178 -48 -43 -97 -58 -175 -54 l-60 3 -3 225 c-1
123 0 231 3 239 8 21 139 10 191 -17z"/>
<path d="M2739 2949 c-47 -17 -49 -37 -49 -394 0 -322 1 -336 20 -355 18 -18
33 -20 179 -20 88 0 167 3 176 6 24 9 46 60 39 89 -10 42 -30 50 -148 55
l-111 5 -5 292 c-4 242 -8 295 -20 307 -22 20 -51 26 -81 15z"/>
<path d="M2537 2928 c18 -14 30 -28 26 -32 -4 -4 0 -4 9 -1 16 6 16 8 0 25 -9
9 -28 21 -42 25 -22 6 -22 5 7 -17z"/>
<path d="M2575 2879 c-4 -6 -5 -12 -2 -15 2 -3 7 2 10 11 7 17 1 20 -8 4z"/>
<path d="M500 2783 c5 -2 8 -9 4 -14 -3 -5 0 -9 6 -9 15 0 7 23 -8 26 -7 1 -8
0 -2 -3z"/>
<path d="M920 2749 c0 -5 5 -7 10 -4 6 3 10 8 10 11 0 2 -4 4 -10 4 -5 0 -10
-5 -10 -11z"/>
<path d="M943 2695 c0 -8 4 -12 9 -9 5 3 6 10 3 15 -9 13 -12 11 -12 -6z"/>
<path d="M427 2659 c7 -7 15 -10 18 -7 3 3 -2 9 -12 12 -14 6 -15 5 -6 -5z"/>
<path d="M500 2509 c0 -5 5 -7 10 -4 6 3 10 8 10 11 0 2 -4 4 -10 4 -5 0 -10
-5 -10 -11z"/>
<path d="M539 2448 c-6 -25 -6 -38 1 -38 12 0 20 29 10 35 -6 4 -10 5 -11 3z"/>
<path d="M2447 2249 c7 -7 15 -10 18 -7 3 3 -2 9 -12 12 -14 6 -15 5 -6 -5z"/>
<path d="M935 2240 c-3 -6 1 -7 9 -4 18 7 21 14 7 14 -6 0 -13 -4 -16 -10z"/>
<path d="M216 1955 c-20 -18 -26 -34 -26 -65 0 -53 12 -74 49 -90 63 -26 121
15 121 84 -1 44 -13 66 -47 84 -34 19 -68 14 -97 -13z m104 -17 c28 -30 26
-79 -4 -107 -43 -41 -106 -8 -106 55 0 65 67 97 110 52z"/>
<path d="M410 1886 c0 -57 4 -96 10 -96 6 0 10 28 10 65 0 36 3 65 8 65 4 0
25 -27 47 -60 59 -88 65 -86 65 25 0 109 -18 130 -22 28 l-3 -68 -48 65 c-27
36 -53 67 -58 68 -5 2 -9 -39 -9 -92z"/>
<path d="M614 1967 c-2 -7 -4 -49 -2 -93 l3 -79 59 -3 c44 -2 57 0 54 10 -3 9
-19 12 -46 10 l-42 -4 0 81 c0 73 -13 112 -26 78z"/>
<path d="M780 1885 c0 -57 4 -95 10 -95 6 0 10 38 10 95 0 57 -4 95 -10 95 -6
0 -10 -38 -10 -95z"/>
<path d="M865 1957 c-9 -36 -1 -162 10 -160 6 2 12 30 15 64 6 70 6 69 69 -23
18 -27 36 -48 42 -48 6 0 9 36 7 93 -3 105 -20 121 -28 26 l-5 -61 -48 66
c-27 36 -50 66 -53 66 -2 0 -6 -10 -9 -23z"/>
<path d="M1072 1888 l3 -93 53 -3 c30 -2 52 1 52 7 0 5 -19 11 -42 13 -40 3
-43 5 -46 36 -3 32 -3 32 40 32 31 0 39 3 28 10 -8 5 -27 10 -42 10 -23 0 -28
4 -28 25 0 25 0 25 62 29 10 1 19 6 20 11 2 6 -21 11 -50 13 l-53 3 3 -93z"/>
<path d="M1307 1973 c-11 -11 -8 -173 3 -173 6 0 10 14 10 30 0 28 3 30 35 30
37 0 75 28 75 55 0 29 -47 65 -83 65 -18 0 -37 -3 -40 -7z m77 -26 c11 -8 17
-23 14 -38 -2 -20 -9 -25 -40 -27 -37 -3 -38 -3 -38 32 0 32 4 37 41 45 3 0
13 -5 23 -12z"/>
<path d="M1476 1973 c-3 -3 -6 -44 -6 -90 0 -67 3 -83 15 -83 11 0 15 11 15
41 0 33 3 40 16 35 9 -3 29 -6 45 -6 27 0 29 -3 29 -35 0 -21 5 -35 13 -35 9
0 11 23 9 90 -3 91 -22 129 -22 45 l0 -45 -45 0 -45 0 0 39 c0 38 -10 57 -24
44z"/>
<path d="M1727 1973 c-10 -16 -67 -164 -67 -173 0 -20 21 -9 30 15 8 21 16 25
54 25 35 0 45 -4 49 -20 3 -11 12 -20 20 -20 12 0 6 20 -23 87 -38 84 -52 104
-63 86z m31 -66 c16 -46 16 -47 -18 -47 -16 0 -30 3 -30 7 0 14 24 73 30 73 3
0 11 -15 18 -33z"/>
<path d="M1870 1890 c0 -53 4 -90 10 -90 6 0 10 14 10 30 0 25 4 30 24 30 17
0 31 -10 42 -30 19 -31 44 -47 44 -28 0 7 -10 22 -22 35 l-22 23 22 16 c14 10
22 26 22 44 0 35 -39 60 -95 60 l-35 0 0 -90z m91 60 c41 -23 16 -70 -38 -70
-31 0 -33 2 -33 33 0 19 3 37 7 40 10 10 42 8 64 -3z"/>
<path d="M2050 1890 c0 -53 4 -90 10 -90 6 0 10 27 10 61 0 35 4 58 9 54 5 -3
21 -30 35 -61 14 -30 30 -53 35 -50 4 3 21 32 37 63 l29 58 3 -62 c5 -97 22
-75 22 27 0 113 -16 119 -56 23 -15 -38 -31 -72 -34 -76 -4 -4 -22 26 -40 68
-45 103 -60 100 -60 -15z"/>
<path d="M2353 1968 c-4 -7 -22 -48 -39 -90 -22 -54 -27 -78 -18 -78 7 0 16 9
19 20 5 16 15 20 50 20 35 0 46 -5 60 -26 9 -14 19 -23 22 -20 5 5 -10 47 -42
121 -7 17 -15 38 -19 48 -6 20 -22 22 -33 5z m33 -63 c19 -45 19 -45 -16 -45
-33 0 -37 11 -20 54 13 34 18 33 36 -9z"/>
<path d="M2519 1967 c-68 -52 -40 -176 41 -177 31 0 70 25 70 46 0 19 -6 18
-30 -6 -28 -28 -55 -25 -80 7 -53 67 21 162 80 103 24 -24 30 -25 30 -6 0 36
-77 59 -111 33z"/>
<path d="M2670 1973 c0 -5 14 -30 30 -58 16 -27 30 -65 30 -82 0 -18 5 -33 10
-33 6 0 10 14 10 31 0 17 15 57 35 90 25 42 30 59 20 59 -8 0 -24 -18 -35 -40
-11 -22 -25 -40 -30 -40 -5 0 -19 18 -30 40 -18 35 -40 53 -40 33z"/>
<path d="M2940 1890 c0 -53 4 -90 10 -90 6 0 10 30 11 68 l0 67 32 -62 c17
-35 37 -63 43 -63 6 0 22 25 35 55 13 30 27 55 32 55 4 0 7 -27 7 -60 0 -33 4
-60 10 -60 6 0 10 37 10 90 0 113 -15 118 -59 20 -17 -39 -35 -69 -39 -66 -5
3 -21 35 -36 71 -40 94 -56 87 -56 -25z"/>
<path d="M3231 1958 c-5 -13 -20 -52 -35 -87 -27 -66 -26 -94 1 -53 23 33 80
31 109 -5 12 -16 24 -26 27 -23 9 9 -68 190 -81 190 -7 0 -16 -10 -21 -22z
m38 -49 c16 -46 14 -49 -20 -49 -27 0 -30 3 -24 23 4 12 9 30 11 40 8 26 21
21 33 -14z"/>
<path d="M3377 1973 c-11 -10 -8 -171 2 -178 5 -3 11 9 13 27 4 48 38 50 73 4
32 -42 55 -38 24 5 -20 29 -20 29 -1 54 23 29 19 59 -11 80 -22 15 -88 21
-100 8z m84 -23 c41 -23 13 -74 -38 -68 -20 2 -29 9 -31 26 -7 49 22 66 69 42z"/>
<path d="M3550 1885 c0 -57 4 -95 10 -95 6 0 10 15 10 33 0 17 5 39 10 47 9
13 12 13 21 -4 21 -35 67 -81 75 -73 4 4 -6 24 -22 45 -46 57 -46 57 -9 98 22
23 31 40 24 43 -7 2 -27 -15 -46 -38 -19 -22 -39 -41 -44 -41 -5 0 -9 18 -9
40 0 22 -4 40 -10 40 -6 0 -10 -38 -10 -95z"/>
<path d="M3712 1888 l3 -93 53 -3 c30 -2 52 1 52 7 0 5 -19 11 -42 13 -40 3
-43 5 -43 33 0 28 3 30 43 33 49 4 47 22 -3 22 -37 0 -48 10 -39 34 4 11 19
16 45 16 28 0 39 4 39 15 0 12 -13 15 -55 15 l-56 0 3 -92z"/>
<path d="M3840 1970 c0 -6 14 -13 30 -16 l30 -6 0 -74 c0 -98 18 -95 22 4 3
72 4 77 25 77 13 0 24 5 25 10 2 6 -27 11 -64 13 -44 2 -68 -1 -68 -8z"/>
<path d="M4010 1890 c0 -53 4 -90 10 -90 6 0 10 14 10 30 0 27 3 30 34 30 36
0 86 32 86 56 0 8 -11 26 -25 39 -18 19 -35 25 -70 25 l-45 0 0 -90z m95 57
c13 -10 16 -21 11 -41 -6 -24 -11 -27 -44 -24 -30 2 -38 7 -40 26 -2 13 -1 30
2 38 7 18 46 18 71 1z"/>
<path d="M4190 1896 c0 -47 0 -89 0 -93 0 -10 67 -16 88 -8 14 5 14 7 2 15 -8
6 -27 10 -42 10 l-28 0 0 74 c0 41 -4 78 -10 81 -6 4 -10 -25 -10 -79z"/>
<path d="M4346 1894 c-35 -84 -40 -122 -9 -76 12 17 25 22 58 22 37 0 44 -3
49 -25 4 -14 13 -25 21 -25 8 0 15 1 15 3 0 13 -80 182 -87 184 -6 2 -27 -35
-47 -83z m63 15 c16 -46 14 -49 -20 -49 -24 0 -30 3 -25 16 3 9 9 27 12 40 8
33 20 30 33 -7z"/>
<path d="M4539 1967 c-24 -18 -39 -52 -39 -87 0 -42 47 -90 87 -90 28 0 73 31
73 50 0 15 -8 12 -40 -12 -25 -18 -33 -20 -55 -10 -24 11 -45 47 -45 78 0 21
45 64 68 64 10 0 28 -9 40 -20 12 -11 24 -20 27 -20 12 0 3 21 -17 40 -24 22
-74 26 -99 7z"/>
<path d="M4712 1971 c-9 -5 -12 -31 -10 -92 l3 -84 44 -3 c62 -5 89 10 31 17
-42 6 -45 8 -48 39 -3 31 -2 32 37 32 23 0 41 5 41 10 0 6 -18 10 -40 10 -36
0 -40 3 -40 25 0 22 4 25 39 25 52 0 61 16 13 24 -48 8 -54 7 -70 -3z"/>
</g>
</svg>
