<svg xmlns="http://www.w3.org/2000/svg" viewBox="0 0 512 512" id="offer">
  <path fill="#2c2a2d" d="M161.67,283c10.29,0,18.35-4.8,18.35-17.7V245.45c0-12.91-8.06-17.7-18.35-17.7s-18.28,4.79-18.28,17.7v19.87C143.39,278.22,151.37,283,161.67,283ZM155,245.45c0-5.18,2.46-7.5,6.64-7.5s6.71,2.32,6.71,7.5v19.87c0,5.17-2.54,7.5-6.71,7.5s-6.64-2.33-6.64-7.5ZM106,263.5a7.5,7.5,0,1,0-7.5-7.5A7.5,7.5,0,0,0,106,263.5Zm406-78.12c0-.16,0-.31,0-.47s0-.21,0-.32l-.09-.46a2.46,2.46,0,0,0-.07-.29,4.64,4.64,0,0,0-.16-.53,1.72,1.72,0,0,0-.07-.21,7.17,7.17,0,0,0-.71-1.41l-.1-.15a5.6,5.6,0,0,0-.36-.49l-.05-.07-.12-.13-.35-.39-.24-.22-.34-.3-.29-.23-.15-.12-59.47-41.75,5.38-25.38a7.5,7.5,0,0,0-7.34-9H305.9l13.77-41.86a.93.93,0,0,0,0-.13c.05-.17.09-.33.13-.49l.06-.24c0-.15.05-.3.07-.45s0-.19,0-.28,0-.26,0-.39,0-.22,0-.33,0-.22,0-.34,0-.24,0-.36v0a3.26,3.26,0,0,0,0-.33c0-.12,0-.23,0-.34s-.1-.45-.16-.67a.88.88,0,0,0,0-.15c-.05-.17-.11-.35-.17-.51a1.08,1.08,0,0,0-.08-.19c-.06-.15-.13-.3-.2-.45a2,2,0,0,0-.11-.2,3.61,3.61,0,0,0-.22-.39l-.15-.23-.23-.33-.19-.24a3.11,3.11,0,0,0-.23-.28l-.23-.25-.24-.23-.26-.24-.27-.21-.27-.21a6.65,6.65,0,0,0-.56-.36l-.19-.09c-.15-.09-.3-.16-.45-.24l-.21-.08a4.52,4.52,0,0,0-.47-.18l-.1,0-.14,0-.43-.12-.31-.07-.34-.06-.4,0h-.06l-48.43-4.26,14.83-37.19.09-.26c.05-.13.1-.27.14-.41l.09-.35c0-.12.06-.24.08-.36l.06-.38c0-.11,0-.23,0-.34s0-.26,0-.39,0-.23,0-.35,0-.24,0-.37,0-.24,0-.36,0-.24-.05-.36L280,6c0-.13-.07-.25-.1-.38s-.05-.22-.09-.33-.1-.29-.15-.43a2.18,2.18,0,0,0-.09-.23s0,0,0,0-.14-.3-.22-.45l-.11-.22L279,3.48a5.08,5.08,0,0,0-.38-.53l-.19-.26c-.07-.09-.16-.17-.24-.26l-.26-.28L277.71,2a3.73,3.73,0,0,0-.36-.32l0,0A7.73,7.73,0,0,0,275.79.7l-.32-.15-.05,0-.33-.11-.32-.11L274.35.2l-.29-.06-.45-.07-.28,0-.44,0h-.29l-.42,0-.32,0-.4.06-.33.06a3.06,3.06,0,0,0-.41.1l-.3.08L270,.5l-.22.08L174.48,40.4l-.09.05a6.45,6.45,0,0,0-.94.49l-.13.07a9.23,9.23,0,0,0-.86.65l-.17.15a7.74,7.74,0,0,0-.73.78,1.71,1.71,0,0,0-.11.14,7.19,7.19,0,0,0-1.07,1.92l-.09.22c0,.07,0,.13-.07.2L154.37,95.43l-29.64,8.25-.3.1-.29.1-.38.15-.24.11-.39.2-.17.1c-.14.08-.28.16-.41.25l-.09.07a7.38,7.38,0,0,0-1.23,1.07l-.13.14q-.12.14-.24.3c-.06.08-.13.15-.19.24s-.13.18-.19.28l-.19.29-.15.29a3.24,3.24,0,0,0-.17.32c0,.1-.09.19-.13.29s-.09.22-.13.33-.08.22-.11.33a2.46,2.46,0,0,0-.09.29c0,.13-.07.25-.1.38v0l-14.75,68.89H34.94a7.51,7.51,0,0,0-7.36,6.06L.14,323.89a7.27,7.27,0,0,0-.09,2.23,7.52,7.52,0,0,0,3.77,7.41l60.33,33.93-6.86,32.06a7.49,7.49,0,0,0,7.33,9.07H206.1l-13.77,41.86a.93.93,0,0,0,0,.13c0,.17-.09.33-.13.49l-.06.24c0,.15,0,.3-.07.45s0,.19,0,.28,0,.26,0,.39,0,.22,0,.33,0,.22,0,.34,0,.24,0,.36v0a3.26,3.26,0,0,0,.05.33c0,.12,0,.23,0,.34s.1.45.16.67a.88.88,0,0,0,.05.15c.05.17.11.35.17.51a1.54,1.54,0,0,0,.08.19c.06.15.13.3.2.45a2,2,0,0,0,.11.2,3.61,3.61,0,0,0,.22.39l.15.23.23.33.19.24a3.11,3.11,0,0,0,.23.28l.23.25.24.23.26.24.27.21.27.21a6.65,6.65,0,0,0,.56.36l.19.09a4.78,4.78,0,0,0,.45.23l.21.09a4.52,4.52,0,0,0,.47.18l.1,0,.08,0a7,7,0,0,0,1,.25l.19,0,.38,0,48.43,4.26-14.83,37.19-.09.26c-.05.13-.1.27-.14.41l-.09.35c0,.12-.06.24-.08.36l-.06.38c0,.11,0,.23,0,.34s0,.26,0,.39,0,.23,0,.35,0,.24,0,.37,0,.24,0,.36,0,.24,0,.36l.06.37c0,.13.07.25.1.38s0,.22.09.33.1.29.15.43a2.18,2.18,0,0,0,.09.23v0a7.42,7.42,0,0,0,.45.89,2.39,2.39,0,0,1,.13.21,8.79,8.79,0,0,0,.57.79l.06.06a6.45,6.45,0,0,0,.63.65l.18.16a6.64,6.64,0,0,0,.78.59h0a8.52,8.52,0,0,0,.84.46l.23.11.26.12.56.19.09,0a7.93,7.93,0,0,0,.94.21l.21,0a8.05,8.05,0,0,0,1,.07h0a8.07,8.07,0,0,0,1-.07l.23,0a7.26,7.26,0,0,0,1.68-.47l95.27-39.82a2.53,2.53,0,0,0,.23-.12,5.65,5.65,0,0,0,.6-.31l.47-.29a5.25,5.25,0,0,0,.53-.4l.42-.35a5.23,5.23,0,0,0,.45-.49c.12-.13.24-.26.35-.4s.25-.37.37-.56.2-.3.29-.46a5.86,5.86,0,0,0,.26-.57c.08-.19.17-.38.23-.57l.06-.15,15.85-50.36,28.74-8a7.49,7.49,0,0,0,6.87-5.93L408,332.84H476.5a7.51,7.51,0,0,0,7.36-6l28-139.48v-.12s0-.09,0-.13c0-.21.07-.41.09-.62s0-.17,0-.26,0-.34,0-.51S512,185.48,512,185.38Zm-66-31.59,34.81,24.44h-40ZM259.06,21.3l-9.89,24.8-40.84-3.59Zm-76.34,34,88,7.73L171.6,90.64ZM301,70.19l-10.93,33.22H181.66ZM132.8,118.41H438.12l-12.67,59.82H120ZM67.44,352.1,33.19,332.84H71.56Zm185.5,138.6,9.89-24.8,40.84,3.59Zm76.34-34-88-7.73,99.13-27.59ZM211,441.81l10.93-33.22H330.34Zm168.86-48.22H73.9l13-60.75H392.7Zm90.54-75.75H16.62L41.11,193.23H495.35ZM406,263.5a7.5,7.5,0,1,0-7.5-7.5A7.5,7.5,0,0,0,406,263.5ZM198.89,282.57c2.91,0,5.82-1.2,5.82-3.6V259.62H216c2.47,0,3.51-2.4,3.51-4.43,0-2.4-1.27-4.57-3.51-4.57H204.71V238H224c2.24,0,3.51-2.41,3.51-5.18,0-2.4-1-5-3.51-5H198.15c-2.54,0-5.08,1.2-5.08,3.6V279C193.07,281.37,196,282.57,198.89,282.57Zm133.84,0c2.91,0,5.82-1.2,5.82-3.6V260.89h4.92l10.22,19.95a4,4,0,0,0,3.73,2.18c3.43,0,7.31-3.15,7.31-6.08a2.47,2.47,0,0,0-.37-1.35L355.26,259c5.22-2,9-6.82,9-15.23,0-12.22-8.13-16-18.35-16H330.49a3.48,3.48,0,0,0-3.58,3.52V279C326.91,281.37,329.82,282.57,332.73,282.57ZM338.55,238h7.38c4.18,0,6.72,1.72,6.72,7s-2.54,7-6.72,7h-7.38Zm-52.37,44.62h26.55c2.47,0,3.51-2.63,3.51-5,0-2.77-1.27-5.17-3.51-5.17h-20V259.62h11.19c2.46,0,3.51-2.4,3.51-4.43,0-2.4-1.27-4.57-3.51-4.57H292.74V238h20c2.24,0,3.51-2.41,3.51-5.18,0-2.4-1-5-3.51-5H286.18c-2.54,0-5.08,1.2-5.08,3.6V279C281.1,281.37,283.64,282.57,286.18,282.57Zm-43.27,0c2.91,0,5.82-1.2,5.82-3.6V259.62H260c2.46,0,3.51-2.4,3.51-4.43,0-2.4-1.27-4.57-3.51-4.57H248.73V238h19.32c2.24,0,3.5-2.41,3.5-5.18,0-2.4-1-5-3.5-5H242.16c-2.54,0-5.07,1.2-5.07,3.6V279C237.09,281.37,240,282.57,242.91,282.57Z"></path>
</svg>
